<svg width="29" height="34" viewBox="0 0 29 34" fill="none" xmlns="http://www.w3.org/2000/svg">
<path fill-rule="evenodd" clip-rule="evenodd" d="M0.751709 14.7059C0.751709 27.3236 14.5165 33.0589 14.5165 33.0589C14.5165 33.0589 28.2813 27.3236 28.2813 14.7059C28.2813 7.10206 22.1186 0.941055 14.5165 0.941055C6.91439 0.941055 0.751709 7.10206 0.751709 14.7059ZM14.5165 12.4565C13.3281 10.2206 10.697 9.45444 8.63913 10.7449C6.58128 12.0353 5.87592 14.8985 7.06429 17.1389C9.0363 20.8489 14.5165 23.8824 14.5165 23.8824C14.5165 23.8824 19.9967 20.8489 21.9687 17.1389C23.1571 14.8985 22.4517 12.0353 20.3939 10.7449C18.336 9.45444 15.7049 10.2206 14.5165 12.4565Z" fill="url(#paint0_linear_277_996)"/>
<defs>
<linearGradient id="paint0_linear_277_996" x1="14.5165" y1="0.941055" x2="14.5165" y2="33.0589" gradientUnits="userSpaceOnUse">
<stop stop-color="#E8BC1D"/>
<stop offset="1" stop-color="#FF719B"/>
</linearGradient>
</defs>
</svg>
